<svg id="visual" viewBox="0 0 900 600" width="900" height="600" xmlns="http://www.w3.org/2000/svg" xmlns:xlink="http://www.w3.org/1999/xlink" version="1.1"><rect x="0" y="0" width="900" height="600" fill="#001220"></rect><path d="M0 417L21.5 407.2C43 397.3 86 377.7 128.8 378C171.7 378.3 214.3 398.7 257.2 401.5C300 404.3 343 389.7 385.8 390.5C428.7 391.3 471.3 407.7 514.2 407.7C557 407.7 600 391.3 642.8 381.5C685.7 371.7 728.3 368.3 771.2 372C814 375.7 857 386.3 878.5 391.7L900 397L900 601L878.5 601C857 601 814 601 771.2 601C728.3 601 685.7 601 642.8 601C600 601 557 601 514.2 601C471.3 601 428.7 601 385.8 601C343 601 300 601 257.2 601C214.3 601 171.7 601 128.8 601C86 601 43 601 21.5 601L0 601Z" fill="#5ccef2"></path><path d="M0 444L21.5 446C43 448 86 452 128.8 444.8C171.7 437.7 214.3 419.3 257.2 422.5C300 425.7 343 450.3 385.8 453C428.7 455.7 471.3 436.3 514.2 427C557 417.7 600 418.3 642.8 424.7C685.7 431 728.3 443 771.2 446.8C814 450.7 857 446.3 878.5 444.2L900 442L900 601L878.5 601C857 601 814 601 771.2 601C728.3 601 685.7 601 642.8 601C600 601 557 601 514.2 601C471.3 601 428.7 601 385.8 601C343 601 300 601 257.2 601C214.3 601 171.7 601 128.8 601C86 601 43 601 21.5 601L0 601Z" fill="#00b5fc"></path><path d="M0 480L21.5 475.3C43 470.7 86 461.3 128.8 465.2C171.7 469 214.3 486 257.2 488.5C300 491 343 479 385.8 477.2C428.7 475.3 471.3 483.7 514.2 483.3C557 483 600 474 642.8 467.8C685.7 461.7 728.3 458.3 771.2 456C814 453.7 857 452.3 878.5 451.7L900 451L900 601L878.5 601C857 601 814 601 771.2 601C728.3 601 685.7 601 642.8 601C600 601 557 601 514.2 601C471.3 601 428.7 601 385.8 601C343 601 300 601 257.2 601C214.3 601 171.7 601 128.8 601C86 601 43 601 21.5 601L0 601Z" fill="#0097ff"></path><path d="M0 540L21.5 536.7C43 533.3 86 526.7 128.8 520.7C171.7 514.7 214.3 509.3 257.2 508.5C300 507.7 343 511.3 385.8 517.5C428.7 523.7 471.3 532.3 514.2 534.7C557 537 600 533 642.8 531.7C685.7 530.3 728.3 531.7 771.2 530.3C814 529 857 525 878.5 523L900 521L900 601L878.5 601C857 601 814 601 771.2 601C728.3 601 685.7 601 642.8 601C600 601 557 601 514.2 601C471.3 601 428.7 601 385.8 601C343 601 300 601 257.2 601C214.3 601 171.7 601 128.8 601C86 601 43 601 21.5 601L0 601Z" fill="#0f73f8"></path><path d="M0 527L21.5 532.5C43 538 86 549 128.8 551C171.7 553 214.3 546 257.2 541.3C300 536.7 343 534.3 385.8 538.3C428.7 542.3 471.3 552.7 514.2 556.2C557 559.7 600 556.3 642.8 551.3C685.7 546.3 728.3 539.7 771.2 539.7C814 539.7 857 546.3 878.5 549.7L900 553L900 601L878.5 601C857 601 814 601 771.2 601C728.3 601 685.7 601 642.8 601C600 601 557 601 514.2 601C471.3 601 428.7 601 385.8 601C343 601 300 601 257.2 601C214.3 601 171.7 601 128.8 601C86 601 43 601 21.5 601L0 601Z" fill="#4f46e5"></path></svg>